<?xml version="1.0" encoding="utf-8"?>
<!-- Generator: Adobe Illustrator 22.0.1, SVG Export Plug-In . SVG Version: 6.00 Build 0)  -->
<svg version="1.1" id="Layer_1" xmlns="http://www.w3.org/2000/svg" xmlns:xlink="http://www.w3.org/1999/xlink" x="0px" y="0px"
	 viewBox="0 0 600 256" style="enable-background:new 0 0 600 256;" xml:space="preserve">
<style type="text/css">
	.st0{fill:#D4237A;}
	.st1{fill:none;}
	.st2{font-family:'Antipasto';}
	.st3{font-size:150px;}
</style>
<path class="st0" d="M103.2,203c-4.1,4.7-8.2,4.7-12.3,0l-45.9-65.9c-1.6-2.4-2.3-5.2-2.3-8.5c0-3.4,0.8-6.3,2.5-8.7l45.9-66.1
	c4-4.7,8.1-4.7,12.3,0l45.9,65.9c1.6,2.4,2.5,5.2,2.5,8.5c0,3.4-0.8,6.3-2.5,8.7L103.2,203z M92.7,182.4c2.8,3.4,5.6,3.4,8.5,0
	l32.3-47.8c1.2-1.8,1.8-4,1.8-6.4c0-2.4-0.6-4.5-1.8-6.4l-32.1-47.5c-2.9-3.4-5.8-3.4-8.5,0.1L60.6,122c-1.2,1.8-1.7,4-1.7,6.5
	c0,2.3,0.5,4.3,1.7,6.2L92.7,182.4L92.7,182.4z M133.4,74.3c-0.7-1.2-1.6-1.9-2.5-2.3V50.6c1.6,0.3,3.2,1.4,4.7,3.3l45.9,65.9
	c1.6,2.4,2.3,5.2,2.3,8.5c0,3.4-0.7,6.3-2.3,8.7l-46,66.1c-1.4,1.8-2.8,2.8-4.5,3.3v-21.6c0.9-0.4,1.8-1.2,2.5-2.3l32.1-47.8
	c1.2-1.8,1.8-4,1.8-6.4c0-2.4-0.6-4.5-1.8-6.4L133.4,74.3L133.4,74.3z M165.8,74.3c-0.7-1.2-1.6-1.9-2.6-2.3V50.6
	c1.8,0.3,3.3,1.4,4.7,3.3l45.9,65.9c1.6,2.4,2.5,5.2,2.5,8.5c0,3.4-0.8,6.3-2.5,8.7l-46,66.1c-1.4,1.8-2.8,2.8-4.5,3.3v-21.6
	c0.9-0.4,1.8-1.2,2.5-2.3l32.3-47.8c1.2-1.8,1.8-4,1.8-6.4c0-2.4-0.6-4.5-1.8-6.4L165.8,74.3L165.8,74.3z"/>
<rect x="312.5" y="79.6" class="st1" width="325" height="164"/>
<text transform="matrix(1 0 0 1 253.5 175.3988)" class="st2 st3">Keva</text>
</svg>
