<?xml version="1.0" encoding="utf-8"?>
<!-- Generator: Adobe Illustrator 22.0.1, SVG Export Plug-In . SVG Version: 6.00 Build 0)  -->
<svg version="1.1" id="Layer_1" xmlns="http://www.w3.org/2000/svg" xmlns:xlink="http://www.w3.org/1999/xlink" x="0px" y="0px"
	 viewBox="0 0 256 256" style="enable-background:new 0 0 256 256;" xml:space="preserve">
<style type="text/css">
	.st0{fill:#D4237A;}
</style>
<path class="st0" d="M89.2,238.3c-6.1,7-12.1,7-18.1,0L3.4,141.1c-2.3-3.5-3.4-7.7-3.4-12.6c0-5,1.2-9.3,3.7-12.8l67.7-97.5
	c5.9-7,12-7,18.1,0l67.7,97.2c2.4,3.5,3.7,7.7,3.7,12.6c0,5-1.2,9.3-3.7,12.8L89.2,238.3z M73.7,207.9c4.1,5,8.3,5,12.6,0l47.6-70.5
	c1.8-2.7,2.7-5.9,2.7-9.4c0-3.5-0.9-6.6-2.7-9.4L86.5,48.5c-4.3-5-8.5-5-12.6,0.2l-47.6,70.2c-1.7,2.7-2.5,5.9-2.5,9.6
	c0,3.4,0.8,6.4,2.5,9.1L73.7,207.9L73.7,207.9z M133.8,48.5c-1.1-1.7-2.3-2.8-3.7-3.4V13.5c2.4,0.5,4.7,2.1,6.9,4.8l67.7,97.2
	c2.3,3.5,3.4,7.7,3.4,12.6c0,5-1.1,9.3-3.4,12.8l-67.9,97.5c-2,2.6-4.2,4.2-6.6,4.8v-31.8c1.4-0.6,2.6-1.8,3.7-3.4l47.4-70.5
	c1.8-2.7,2.7-5.9,2.7-9.4c0-3.5-0.9-6.6-2.7-9.4L133.8,48.5L133.8,48.5z M181.6,48.5c-1.1-1.7-2.4-2.8-3.9-3.4V13.5
	c2.6,0.5,4.9,2.1,6.9,4.8l67.7,97.2c2.4,3.5,3.7,7.7,3.7,12.6c0,5-1.2,9.3-3.7,12.8l-67.9,97.5c-2,2.6-4.2,4.2-6.6,4.8v-31.8
	c1.4-0.6,2.6-1.8,3.7-3.4l47.6-70.5c1.8-2.7,2.7-5.9,2.7-9.4c0-3.5-0.9-6.6-2.7-9.4L181.6,48.5L181.6,48.5z"/>
</svg>
